<?xml version="1.0" encoding="UTF-8"?>
<svg width="6px" height="6px" viewBox="0 0 6 6" version="1.1" xmlns="http://www.w3.org/2000/svg" xmlns:xlink="http://www.w3.org/1999/xlink">
    <!-- Generator: sketchtool 55.2 (78181) - https://sketchapp.com -->
    <title>7FB7451A-724F-45C0-9FDB-266DD3D3A3D0</title>
    <desc>Created with sketchtool.</desc>
    <g id="Desktop" stroke="none" stroke-width="1" fill="none" fill-rule="evenodd" opacity="0.474748884">
        <g id="Homepage---Hero-Option-2-Copy-24" transform="translate(-1232.000000, -27.000000)" fill="#000000" fill-rule="nonzero">
            <g id="Group-27" transform="translate(110.000000, -2.000000)">
                <g id="Group-11" transform="translate(933.000000, 26.000000)">
                    <path d="M194.507885,3 L190.571172,3 C190.299403,3 190.079078,3.23345728 190.079078,3.52142527 C190.079078,3.80939326 190.299403,4.04285054 190.571172,4.04285054 L193.319885,4.04285054 L189.144136,8.10990491 C188.951955,8.31354149 188.951955,8.64365278 189.144136,8.84728936 C189.240195,8.94909645 189.366132,9 189.492068,9 C189.618004,9 189.743961,8.94911886 189.840042,8.84726696 L194.015811,4.780235 L194.015811,7.69278262 C194.015811,7.9807506 194.236136,8.21420788 194.507906,8.21420788 C194.779675,8.21420788 195,7.9807506 195,7.69278262 L195,3.52142527 C195,3.23345728 194.779654,3 194.507885,3 Z" id="external-link"></path>
                </g>
            </g>
        </g>
    </g>
</svg>