<svg width="46" height="46" xmlns="http://www.w3.org/2000/svg"><g fill="none" fill-rule="evenodd"><path d="M6.859 0L0 6.86V46h39.14L46 39.14V0H6.859zM1 7.239L7.239 1H45v37.761L38.76 45H1V7.239z" fill="#009EE2"/><path d="M28.38 14.004L25.793 14c-2.907 0-4.785 1.819-4.785 4.634v2.136h-2.601a.396.396 0 00-.407.384v3.096c0 .212.182.384.407.384h2.601v7.81c0 .212.182.384.407.384h3.394c.224 0 .406-.172.406-.384v-7.81h3.042a.396.396 0 00.407-.384v-3.096c0-.102-.042-.2-.118-.271a.42.42 0 00-.288-.113h-3.043V18.96c0-.87.22-1.312 1.422-1.312l1.742-.001a.396.396 0 00.407-.384v-2.874c0-.212-.182-.384-.406-.384z" fill="#FFF" fill-rule="nonzero"/></g></svg>