<?xml version="1.0" encoding="UTF-8"?>
<svg width="11px" height="17px" viewBox="0 0 11 17" version="1.1" xmlns="http://www.w3.org/2000/svg" xmlns:xlink="http://www.w3.org/1999/xlink">
    <!-- Generator: Sketch 55.2 (78181) - https://sketchapp.com -->
    <title>fb-footer-light 2</title>
    <desc>Created with Sketch.</desc>
    <g id="Mobile" stroke="none" stroke-width="1" fill="none" fill-rule="evenodd">
        <g id="twitter-footer-light" transform="translate(-78.000000, 0.000000)" fill="#6E7C7C" fill-rule="nonzero">
            <g id="fb-footer-light-2" transform="translate(78.000000, 0.000000)">
                <g id="fb-footer-light">
                    <path d="M9.66986774,0.425669357 L7.45262487,0.422360143 C4.96162856,0.422360143 3.3518373,1.95866289 3.3518373,4.33649884 L3.3518373,6.14117887 L1.12249877,6.14117887 C0.929857455,6.14117887 0.7738589,6.28645338 0.7738589,6.46564733 L0.7738589,9.08042302 C0.7738589,9.25961697 0.930035333,9.40472602 1.12249877,9.40472602 L3.3518373,9.40472602 L3.3518373,16.0026376 C3.3518373,16.1818315 3.50783587,16.3269405 3.70047718,16.3269405 L6.60912984,16.3269405 C6.80177115,16.3269405 6.95776971,16.181666 6.95776971,16.0026376 L6.95776971,9.40472602 L9.56438639,9.40472602 C9.75702772,9.40472602 9.91302627,9.25961697 9.91302627,9.08042302 L9.91409353,6.46564733 C9.91409353,6.37960775 9.8772729,6.29720832 9.81199186,6.23631877 C9.74671082,6.17542923 9.65777208,6.14117887 9.56527578,6.14117887 L6.95776971,6.14117887 L6.95776971,4.61132909 C6.95776971,3.87602166 7.14614197,3.50274229 8.17587474,3.50274229 L9.66951199,3.50224591 C9.86197543,3.50224591 10.017974,3.3569714 10.017974,3.1779429 L10.017974,0.749972361 C10.017974,0.571109327 9.86215331,0.426000279 9.66986774,0.425669357 Z" id="Path"></path>
                </g>
            </g>
        </g>
    </g>
</svg>