<svg width="45" height="55" viewBox="0 0 45 55" xmlns="http://www.w3.org/2000/svg"><defs><linearGradient x1="100%" y1="4.103%" x2="0%" y2="4.103%" id="a"><stop stop-color="#A71880" offset="0%"/><stop stop-color="#039ADE" offset="100%"/></linearGradient></defs><path d="M25.895 46.31v5.426h11.361v2.978H11.494v-2.978h11.36v-5.482a25.416 25.416 0 0 1-6.412-1.366c-6.248-2.2-11.243-6.643-14.066-12.512-2.823-5.87-3.142-12.474-.895-18.595C3.726 7.66 8.262 2.766 14.254 0l1.296 2.694C10.293 5.121 6.312 9.416 4.342 14.79c-1.971 5.373-1.693 11.167.784 16.317 2.477 5.149 6.861 9.049 12.345 10.979 5.484 1.931 11.398 1.658 16.655-.769l1.296 2.694a25.145 25.145 0 0 1-9.527 2.3zm16.5-32.072c2.128 4.392 2.387 9.335.73 13.919-1.656 4.584-5.03 8.26-9.501 10.35a18.647 18.647 0 0 1-7.953 1.77c-7.117 0-13.69-4.078-16.748-10.39-2.126-4.392-2.386-9.334-.73-13.918 1.658-4.584 5.032-8.26 9.502-10.35a18.643 18.643 0 0 1 7.952-1.77c7.118 0 13.692 4.077 16.749 10.389zM34.34 8.674c-.494.63-1.474 1.773-2.996 3.12a30.856 30.856 0 0 1 3.166 4.846l5.205-2.434a16.047 16.047 0 0 0-5.375-5.532zM25.1 23.61l-6.159 2.879a29.006 29.006 0 0 0 2.809 4.314 34.399 34.399 0 0 1 5.243-3.284l-1.893-3.91zm-7.17.78l6.154-2.876-1.924-3.973a33.941 33.941 0 0 1-5.898 1.925 28.459 28.459 0 0 0 1.668 4.925zm8.288-3.874l6.157-2.879a28.943 28.943 0 0 0-2.843-4.36 34.405 34.405 0 0 1-5.241 3.26l1.927 3.98zm7.169-.781l-6.154 2.877 1.892 3.907a33.993 33.993 0 0 1 5.912-1.948 28.596 28.596 0 0 0-1.65-4.836zm-7.74-13.566c-.28 0-.558.009-.836.023 1.692.861 3.388 2.17 4.983 3.834a23.628 23.628 0 0 0 2.425-2.47 16.356 16.356 0 0 0-6.573-1.387zM20.47 7.34c-.21 0-.412.018-.612.045l3.417 7.055a31.897 31.897 0 0 0 4.711-2.934C25.496 8.92 22.785 7.34 20.471 7.34zm-2.74 1.052c-1.208 1.103-1.93 3.025-2.043 5.583a18.445 18.445 0 0 0 .161 3.19 31.344 31.344 0 0 0 5.294-1.727L17.73 8.393zm-7.31 8.352c-.13.36-.232.725-.335 1.09.69.013 1.88-.019 3.442-.239-.175-1.283-.254-2.535-.2-3.721.039-.88.153-1.694.316-2.46a15.818 15.818 0 0 0-3.224 5.33zm-.807 3.399c-.325 2.588.008 5.21.987 7.674l5.197-2.43a30.763 30.763 0 0 1-1.856-5.492c-1.479.214-2.675.268-3.505.268-.342 0-.61-.01-.823-.02zm7.338 15.288c.462-.597 1.437-1.756 2.993-3.141a30.935 30.935 0 0 1-3.135-4.805l-5.205 2.433a16.042 16.042 0 0 0 5.347 5.513zm8.72 2.524c.28 0 .557-.009.835-.023-1.705-.867-3.415-2.189-5.018-3.87-1.172 1.049-1.973 1.94-2.427 2.493a16.36 16.36 0 0 0 6.61 1.4zm5.175-1.171c.21 0 .413-.019.612-.047l-3.45-7.123a31.844 31.844 0 0 0-4.717 2.961c2.503 2.61 5.23 4.209 7.555 4.209zm2.74-1.053c1.21-1.103 1.93-3.024 2.044-5.582.047-1.045-.021-2.148-.174-3.285a31.62 31.62 0 0 0-5.316 1.75l3.447 7.117zM40.9 27.38c.143-.395.256-.793.366-1.193-.699-.013-1.905.02-3.487.245.186 1.319.268 2.603.214 3.82a14.98 14.98 0 0 1-.317 2.458 15.796 15.796 0 0 0 3.224-5.33zm.816-3.503a15.463 15.463 0 0 0-.997-7.57l-5.197 2.43c.795 1.8 1.42 3.62 1.838 5.4 2.09-.305 3.613-.297 4.356-.26z" fill="url(#a)" fill-rule="evenodd"/></svg>