<svg width="46" height="46" xmlns="http://www.w3.org/2000/svg" xmlns:xlink="http://www.w3.org/1999/xlink"><defs><path id="a" d="M.008.1H17.9V18H.008z"/></defs><g fill="none" fill-rule="evenodd"><path d="M6.859 0L0 6.86V46h39.14L46 39.14V0H6.859zM1 7.239L7.239 1H45v37.761L38.76 45H1V7.239z" fill="#009EE2"/><g transform="translate(14 14)"><mask id="b" fill="#fff"><use xlink:href="#a"/></mask><path d="M12.96.1H4.94A4.945 4.945 0 000 5.04v8.02A4.945 4.945 0 004.94 18h8.02a4.946 4.946 0 004.94-4.94V5.04A4.945 4.945 0 0012.96.1zm3.352 12.96a3.355 3.355 0 01-3.351 3.352H4.94a3.355 3.355 0 01-3.352-3.352V5.04A3.355 3.355 0 014.94 1.686h8.02a3.355 3.355 0 013.352 3.352v8.021z" fill="#FFF" fill-rule="nonzero" mask="url(#b)"/></g><path d="M22.95 18.438a4.618 4.618 0 00-4.612 4.612 4.618 4.618 0 004.612 4.612 4.618 4.618 0 004.613-4.612 4.618 4.618 0 00-4.613-4.612zm0 7.636a3.028 3.028 0 01-3.024-3.024 3.028 3.028 0 013.024-3.025 3.028 3.028 0 013.025 3.025 3.028 3.028 0 01-3.025 3.024zM27.757 17.09a1.168 1.168 0 00-1.165 1.166c0 .306.125.606.342.823.216.216.516.34.823.34.307 0 .606-.124.823-.34.217-.217.341-.518.341-.823a1.17 1.17 0 00-.341-.825 1.17 1.17 0 00-.823-.34z" fill="#FFF" fill-rule="nonzero"/></g></svg>