<?xml version="1.0" encoding="UTF-8"?>
<svg width="17px" height="15px" viewBox="0 0 17 15" version="1.1" xmlns="http://www.w3.org/2000/svg" xmlns:xlink="http://www.w3.org/1999/xlink">
    <!-- Generator: Sketch 55.2 (78181) - https://sketchapp.com -->
    <title>linkedin-footer-light 2</title>
    <desc>Created with Sketch.</desc>
    <g id="Mobile" stroke="none" stroke-width="1" fill="none" fill-rule="evenodd">
        <g id="twitter-footer-light" transform="translate(-53.000000, -2.000000)" fill="#6E7C7C" fill-rule="nonzero">
            <g id="linkedin-footer-light-2" transform="translate(53.000000, 2.000000)">
                <g id="linkedin-footer-light">
                    <path d="M16.2787454,9.11755316 L16.2787454,14.8369562 L12.8005118,14.8369562 L12.8005118,9.5006043 C12.8005118,8.16006919 12.2974228,7.2452064 11.0384175,7.2452064 C10.0773266,7.2452064 9.5053808,7.86175687 9.25376084,8.4581657 C9.162002,8.67137951 9.13838314,8.96814524 9.13838314,9.26660141 L9.13838314,14.8369562 L5.65897988,14.8369562 C5.65897988,14.8369562 5.70584028,5.79892761 5.65897988,4.86252044 L9.13804358,4.86252044 L9.13804358,6.27635679 C9.13098811,6.28693115 9.12181977,6.29833277 9.11517933,6.30858344 L9.13804358,6.30858344 L9.13804358,6.27635679 C9.6002712,5.59769089 10.4257612,4.62819385 12.2734644,4.62819385 C14.5626438,4.62819385 16.2787454,6.05379149 16.2787454,9.11755316 Z M2.01937593,0.0543475 C0.829076593,0.0543475 0.0505224286,0.798617654 0.0505224286,1.77735826 C0.0505224286,2.7347703 0.80655191,3.50162788 1.97319467,3.50162788 L1.99643621,3.50162788 C3.20978846,3.50162788 3.9643842,2.73491416 3.9643842,1.77735826 C3.94151996,0.798617654 3.20978846,0.0543475 2.01937593,0.0543475 Z M0.257168474,14.8369562 L3.73525121,14.8369562 L3.73525121,4.86252044 L0.257168474,4.86252044 L0.257168474,14.8369562 Z" id="LinkedIn"></path>
                </g>
            </g>
        </g>
    </g>
</svg>