<svg width="46" height="46" xmlns="http://www.w3.org/2000/svg"><g fill="none" fill-rule="evenodd"><path d="M6.859 0L0 6.86V46h39.14L46 39.14V0H6.859zM1 7.239L7.239 1H45v37.761L38.76 45H1V7.239z" fill="#009EE2"/><path d="M32 25.423V32h-3.858v-6.137c0-1.541-.558-2.594-1.954-2.594-1.066 0-1.7.71-1.98 1.395-.102.246-.128.587-.128.93V32h-3.86s.053-10.394 0-11.47h3.86v1.625l-.026.037h.026v-.037c.512-.78 1.428-1.895 3.477-1.895 2.54 0 4.443 1.64 4.443 5.163zM16.184 15c-1.32 0-2.184.856-2.184 1.981 0 1.101.839 1.983 2.133 1.983h.025c1.346 0 2.183-.881 2.183-1.983-.025-1.125-.837-1.981-2.157-1.981zm-1.955 17h3.858V20.53h-3.858V32z" fill="#FFF" fill-rule="nonzero"/></g></svg>