<?xml version="1.0" encoding="UTF-8"?>
<svg width="23px" height="23px" viewBox="0 0 23 23" version="1.1" xmlns="http://www.w3.org/2000/svg" xmlns:xlink="http://www.w3.org/1999/xlink">
    <!-- Generator: Sketch 55.2 (78181) - https://sketchapp.com -->
    <title>edit</title>
    <desc>Created with Sketch.</desc>
    <g id="Mobile" stroke="none" stroke-width="1" fill="none" fill-rule="evenodd" stroke-linecap="round" stroke-linejoin="round">
        <g id="Msc-Detail---Overview" transform="translate(-290.000000, -8369.000000)" stroke="#0254A7" stroke-width="2">
            <g id="Group-16" transform="translate(0.000000, 7175.000000)">
                <g id="Group-17" transform="translate(0.000000, 1186.000000)">
                    <g id="edit" transform="translate(291.000000, 9.000000)">
                        <path d="M9,3 L2,3 C0.8954305,3 0,3.8954305 0,5 L0,19 C0,20.1045695 0.8954305,21 2,21 L16,21 C17.1045695,21 18,20.1045695 18,19 L18,12" id="Path"></path>
                        <path d="M16.5,1.5 C17.3284271,0.671572905 18.6715729,0.671572919 19.5,1.50000003 C20.3284271,2.32842714 20.3284271,3.67157287 19.5,4.5 L10,14 L6,15 L7,11 L16.5,1.5 Z" id="Path"></path>
                    </g>
                </g>
            </g>
        </g>
    </g>
</svg>