<?xml version="1.0" encoding="UTF-8"?>
<svg width="18px" height="22px" viewBox="0 0 18 22" version="1.1" xmlns="http://www.w3.org/2000/svg" xmlns:xlink="http://www.w3.org/1999/xlink">
    <!-- Generator: Sketch 55.2 (78181) - https://sketchapp.com -->
    <title>file-text</title>
    <desc>Created with Sketch.</desc>
    <g id="Mobile" stroke="none" stroke-width="1" fill="none" fill-rule="evenodd" stroke-linecap="round" stroke-linejoin="round">
        <g id="Msc-Detail---Overview" transform="translate(-51.000000, -8370.000000)" stroke="#0254A7" stroke-width="2">
            <g id="Group-16" transform="translate(0.000000, 7175.000000)">
                <g id="Group-17" transform="translate(0.000000, 1186.000000)">
                    <g id="file-text" transform="translate(52.000000, 10.000000)">
                        <path d="M10,0 L2,0 C0.8954305,0 0,0.8954305 0,2 L0,18 C0,19.1045695 0.8954305,20 2,20 L14,20 C15.1045695,20 16,19.1045695 16,18 L16,6 L10,0 Z" id="Path"></path>
                        <polyline id="Path" points="10 0 10 6 16 6"></polyline>
                        <path d="M12,11 L4,11" id="Path"></path>
                        <path d="M12,15 L4,15" id="Path"></path>
                        <polyline id="Path" points="6 7 5 7 4 7"></polyline>
                    </g>
                </g>
            </g>
        </g>
    </g>
</svg>