<?xml version="1.0" encoding="UTF-8"?>
<svg width="19px" height="15px" viewBox="0 0 19 15" version="1.1" xmlns="http://www.w3.org/2000/svg" xmlns:xlink="http://www.w3.org/1999/xlink">
    <!-- Generator: Sketch 55.2 (78181) - https://sketchapp.com -->
    <title>Path</title>
    <desc>Created with Sketch.</desc>
    <g id="Mobile" stroke="none" stroke-width="1" fill="none" fill-rule="evenodd">
        <g id="twitter-footer-light" fill="#6E7C7C" fill-rule="nonzero">
            <path d="M18.518293,2.0912033 C17.8557919,2.37229093 17.1449379,2.56292134 16.3980542,2.64802772 C17.1606732,2.21075214 17.7444389,1.51717172 18.0211157,0.693256323 C17.3057616,1.09820162 16.5161426,1.39224389 15.6747884,1.55164234 C15.001052,0.863440928 14.0427269,0.434783 12.979784,0.434783 C10.9405453,0.434783 9.28710146,2.01798139 9.28710146,3.96951412 C9.28710146,4.24629292 9.31971916,4.51662256 9.38271926,4.77512404 C6.31430247,4.62755374 3.59344508,3.21991895 1.7724127,1.08096631 C1.45408865,1.60224995 1.27300012,2.2096538 1.27300012,2.85803378 C1.27300012,4.08475413 1.92538354,5.16714286 2.91520868,5.80039969 C2.31006064,5.78102404 1.74091265,5.62162559 1.24264713,5.35667495 L1.24264713,5.40083338 C1.24264713,7.11326844 2.51591391,8.54244737 4.20421079,8.86772159 C3.89488675,8.94742082 3.56870975,8.99157926 3.23126802,8.99157926 C2.99282646,8.99157926 2.76223785,8.96896496 2.53614925,8.92587669 C3.00629707,10.3313711 4.369564,11.3534363 5.98477252,11.3814577 C4.7216234,12.3292308 3.12891491,12.8925044 1.39900032,12.8925044 C1.10094101,12.8925044 0.807352296,12.8752691 0.518293,12.8440371 C2.1526192,13.8488951 4.09288708,14.434783 6.17824344,14.434783 C12.9708428,14.434783 16.68379,9.04759402 16.68379,4.37555775 L16.6714077,3.91783636 C17.3968794,3.42237752 18.0244981,2.79987868 18.518293,2.0912033 Z" id="Path"></path>
        </g>
    </g>
</svg>