<svg width="46" height="46" xmlns="http://www.w3.org/2000/svg"><g fill="none" fill-rule="evenodd"><path d="M6.859 0L0 6.86V46h39.14L46 39.14V0H6.859zM1 7.239L7.239 1H45v37.761L38.76 45H1V7.239z" fill="#009EE2"/><path d="M32 17.656a7.63 7.63 0 01-2.12.557 3.582 3.582 0 001.623-1.955 7.647 7.647 0 01-2.347.859A3.76 3.76 0 0026.461 16c-2.039 0-3.692 1.583-3.692 3.535 0 .277.032.547.095.805-3.068-.147-5.789-1.555-7.61-3.694a3.396 3.396 0 00-.5 1.777c0 1.227.653 2.31 1.643 2.943a3.818 3.818 0 01-1.673-.444v.044c0 1.712 1.274 3.142 2.962 3.467-.31.08-.636.124-.973.124-.238 0-.47-.023-.695-.066.47 1.406 1.833 2.428 3.448 2.456a7.62 7.62 0 01-4.585 1.51c-.298 0-.592-.017-.881-.048A10.776 10.776 0 0019.66 30c6.793 0 10.505-5.387 10.505-10.06l-.012-.457A7.21 7.21 0 0032 17.656z" fill="#FFF" fill-rule="nonzero"/></g></svg>