<svg width="43" height="61" viewBox="0 0 43 61" xmlns="http://www.w3.org/2000/svg"><defs><linearGradient x1="100%" y1="0%" x2="6.4%" y2="0%" id="a"><stop stop-color="#A51C81" offset="0%"/><stop stop-color="#0297D8" offset="100%"/></linearGradient></defs><path d="M12.684 14.113l-.862-1.142a4.054 4.054 0 0 1-.699-3.44c.008-.031.018-.061.028-.092l.002-.005 1.123-4.491C13.098 1.663 14.726 0 17.113 0h3.835a2.6 2.6 0 0 1 2.14 1.103c.502.706.63 1.61.344 2.428a6.166 6.166 0 0 1-1.828 2.463 14.97 14.97 0 0 1-.408.364c-1.124.98-1.08 1.16-.897 1.415.172.24.39.274 1.414.012.207-.053.411-.104.607-.143l.277-.054c.527-.104 1.061-.208 1.587-.32a3.496 3.496 0 0 1 1.774.11c.84.254 1.536.845 1.922 1.632a4.574 4.574 0 0 1-.005 3.52 26.12 26.12 0 0 1-2.363 4.596 9.928 9.928 0 0 1-.442.643c-.302.414-.756 1.039-.695 1.334a.834.834 0 0 0 .296.295c.43.316.818.627 1.217.946l1.51 1.212a6.414 6.414 0 0 1 2.09 3.582c.09.386.155.778.193 1.173.032.378.1.752.204 1.116.283.501.12 1.135-.369 1.44a.981.981 0 0 1-1.366-.337 2.398 2.398 0 0 1-.209-.486 7.478 7.478 0 0 1-.286-1.492 7.216 7.216 0 0 0-.146-.916 4.492 4.492 0 0 0-1.396-2.499l-1.503-1.205c-.378-.303-.746-.597-1.136-.885a2.534 2.534 0 0 1-1.096-1.524 3.82 3.82 0 0 1 1.04-2.949c.131-.179.256-.349.353-.507a24.493 24.493 0 0 0 2.188-4.237 2.629 2.629 0 0 0 .083-1.936 1.128 1.128 0 0 0-.721-.584 1.468 1.468 0 0 0-.724-.05c-.524.111-1.069.218-1.608.324l-.272.053c-.16.032-.327.075-.499.12-.95.242-2.542.646-3.579-.8-1.355-1.891.38-3.404 1.215-4.131.125-.11.246-.215.355-.317a4.478 4.478 0 0 0 1.292-1.636.64.64 0 0 0-.077-.592.572.572 0 0 0-.476-.246h-3.835c-.934 0-2.101.387-2.857 3.401l-1.133 4.528a.94.94 0 0 1-.028.094 2.024 2.024 0 0 0 .354 1.684l.866 1.147a5.798 5.798 0 0 1 1.39 3.114c-.01.922-.14 1.838-.388 2.726-.074.31-.145.615-.2.907-.165.847-.109 1.065.042 1.155.191.102.392.184.6.245.75.175 1.407.627 1.838 1.265a4.443 4.443 0 0 1 .061 3.828c-.167.324-.351.64-.551.945a3.415 3.415 0 0 0-.719 1.666c.06.25.237.455.475.554.274.175.615.213.921.1l.242-.148c.798-.498 2.131-1.331 3.256-.816a1.902 1.902 0 0 1 1.063 1.566 3.8 3.8 0 0 1-.035 1.155c-.065.444-.051.46.057.586.234.273.534.48.872.604.093.034.18.062.269.09a2.908 2.908 0 0 1 1.51.919c.139.168.244.36.31.567.167.46.197.957.087 1.433a9.057 9.057 0 0 1-.996 2.898 3.557 3.557 0 0 1-1.06 1.202c-.244.17-.523.281-.817.33a6.649 6.649 0 0 1-1.794.111 8.2 8.2 0 0 0-.58-.004c-1.146.069-2.616.565-3.075 1.347-.204.388-.178.857.069 1.22.035.04.277.248.437.386.637.55 1.43 1.234 1.272 2.2a1.779 1.779 0 0 1-1.238 1.336c-.395.161-.8.3-1.205.437-.405.139-.809.275-1.199.442-.898.385-1.279.78-1.316.952-.014.063.055.217.239.417.206.23.568.31 1.266.281l.336-.014a7.629 7.629 0 0 1 5.079 1.03l.307.208c.595.41.804.516 1.042.427.38-.186.73-.427 1.04-.715a19.868 19.868 0 0 1 1.045-.814c.373-.262.728-.55 1.061-.863a1.022 1.022 0 0 1 1.432.011c.395.394.4 1.03.011 1.429a10.034 10.034 0 0 0-1.48 2.133 9.986 9.986 0 0 1-2.282 2.985c-1.085.874-2.526.57-3.578.347-.225-.048-.437-.094-.628-.12-1.013-.071-2.001.332-2.675 1.09-.663.609-1.887 1.73-1.923 2.644 0 .072.03.14.082.19a.233.233 0 0 0 .211.096 1.12 1.12 0 0 0 .142-.02c.175-.035.275-.063.377-.09 1.949-.513 3.875-.831 5.736-1.138.771-.128 1.542-.255 2.31-.394.823-.15 1.664-.354 2.477-.552a28.399 28.399 0 0 1 4.163-.793c1.544-.133 3.092-.275 4.63-.418.347-.032.7-.056 1.057-.08a12.368 12.368 0 0 0 3.027-.45c.386-.126.696-.417.845-.794.013-.06.032-.15-.143-.308-.08-.072-.166-.137-.247-.2a2.746 2.746 0 0 1-.98-1.176 5.685 5.685 0 0 1-.331-2.244c.013-1.996 1.438-3.13 2.583-4.041l.116-.093c.501-.42.76-1.06.69-1.708a1.827 1.827 0 0 0-.93-1.48 4.423 4.423 0 0 0-2.127-.262c-.301.009-.583.005-.896.019a2.764 2.764 0 0 1-2.06-.527 2.256 2.256 0 0 1-.733-1.713c-.022-.438-.011-.908.01-1.368a1.038 1.038 0 0 1 1.068-.968c.563.027.997.503.97 1.065-.018.396-.028.8-.009 1.195a.632.632 0 0 0 .047.27c.206.027.415.031.623.013.323-.015.617-.012.927-.02a6.064 6.064 0 0 1 3.154.508 3.882 3.882 0 0 1 1.987 3.088 3.979 3.979 0 0 1-1.444 3.474l-.121.096c-1.121.893-1.81 1.49-1.815 2.475-.033.49.028.982.178 1.45.042.101.1.153.338.335.119.092.243.188.367.3.653.546.95 1.407.774 2.24a3.304 3.304 0 0 1-2.193 2.302c-1.15.336-2.34.521-3.538.551-.339.024-.675.046-1.005.077-1.543.142-3.097.285-4.64.417a26.566 26.566 0 0 0-3.86.744c-.842.205-1.713.417-2.595.577-.778.14-1.56.27-2.34.4-1.817.299-3.695.609-5.48 1.078a6.283 6.283 0 0 1-.532.128c-.16.035-.321.057-.484.066h-.045a2.37 2.37 0 0 1-1.723-.71 2.295 2.295 0 0 1-.657-1.69c.068-1.757 1.636-3.195 2.573-4.055a5.262 5.262 0 0 1 4.356-1.612c.23.034.488.087.76.144.651.138 1.542.325 1.872.061.197-.16.38-.337.546-.529a3.426 3.426 0 0 1-2.293-.807l-.274-.186c-1.204-.803-2.264-.76-3.866-.691l-.34.013a3.479 3.479 0 0 1-2.86-.948 2.43 2.43 0 0 1-.721-2.211c.208-.964 1.05-1.77 2.505-2.394.44-.188.892-.344 1.346-.498.257-.087.514-.174.768-.269-.097-.087-.195-.172-.274-.24a3.628 3.628 0 0 1-.93-1.023 3.179 3.179 0 0 1-.002-3.147c.867-1.482 2.995-2.25 4.72-2.353.213-.012.471-.006.75.001.43.03.862.01 1.286-.06l.134-.03a1.68 1.68 0 0 0 .427-.53c.38-.715.64-1.489.767-2.29a.639.639 0 0 0 .011-.29l-.019-.05a1.637 1.637 0 0 0-.534-.24 7.19 7.19 0 0 1-.346-.12 4.12 4.12 0 0 1-1.714-1.189 2.48 2.48 0 0 1-.523-2.202c.034-.173.047-.349.04-.524-.43.17-.839.385-1.223.64l-.271.166c-.923.5-2.04.48-2.943-.053a2.742 2.742 0 0 1-1.545-2.275 5.028 5.028 0 0 1 1.03-2.82c.163-.246.312-.501.449-.764.255-.61.255-1.295.001-1.906-.08-.136-.395-.244-.73-.357a4.782 4.782 0 0 1-1-.432c-1.453-.87-1.139-2.496-.988-3.278.06-.315.138-.647.217-.987a8.92 8.92 0 0 0 .337-2.17 4.083 4.083 0 0 0-.98-1.982zM2.827 34C1.522 33.69.495 32.732.135 31.495c-.358-1.237.007-2.562.958-3.47l1.029-.982A3.85 3.85 0 0 1 4.76 26h3.222c1.415-.005 2.71.76 3.339 1.97l1.234 2.356c.81 1.544.493 3.41-.787 4.63-1.135 1.085-2.872 1.354-4.308.667l-1.999-.954a1.765 1.765 0 0 0-.352-.124L2.827 34zm-.312-4.617a1.59 1.59 0 0 0-.44 1.6c.165.57.639 1.01 1.24 1.154l2.282.544c.264.063.52.154.764.27l1.998.954a1.775 1.775 0 0 0 1.986-.308 2.017 2.017 0 0 0 .41-2.412L9.52 28.828a1.72 1.72 0 0 0-1.538-.907H4.76a1.775 1.775 0 0 0-1.216.48l-1.029.982z" fill="url(#a)" fill-rule="nonzero"/></svg>