<svg width="171" height="81" xmlns="http://www.w3.org/2000/svg"><g fill="none" fill-rule="evenodd"><path fill="#00489A" d="M.393 80.334h80.484V0H.393z"/><g fill="#FFF"><path d="M38.005 56.168a.703.703 0 01-.088.308l-.218.617c-.06.176-.236.336-.53.484l-.484.089-.617.176c-.822.234-1.497 1.041-2.026 2.421l-6.387 16.34c-.324.794-.646 1.19-.969 1.19h-.616c-.381 0-.69-.323-.925-.969L20.123 62.51 14.53 76.692c-.296.735-.617 1.1-.97 1.1h-.617c-.324 0-.632-.396-.925-1.19L6.296 61.19c-.56-1.468-.97-2.378-1.233-2.73-.265-.352-.823-.646-1.674-.881-.383-.118-.573-.25-.573-.396 0-.03.028-.118.088-.265l.22-.617c.117-.352.499-.528 1.146-.528h6.782c.764 0 1.143.147 1.143.44 0 .088-.028.19-.087.309l-.087.352c-.147.294-.544.544-1.19.749-.733.235-1.1.69-1.1 1.364 0 .44.072.867.22 1.278l4.052 11.715 5.681-15.326c.206-.587.515-.881.925-.881h.837c.264 0 .514.367.75 1.1l4.933 15.108 4.404-12.025c.265-.732.396-1.173.396-1.321 0-.323-.117-.55-.352-.683-.236-.132-.779-.286-1.63-.462-.412-.088-.618-.235-.618-.44 0-.089.03-.192.09-.309l.22-.573c.087-.264.498-.396 1.233-.396h6.122c.706 0 1.041.132 1.012.396"/><path d="M56.328 65.858c0-2.408-.525-4.346-1.574-5.815-1.052-1.467-2.421-2.201-4.113-2.201-2.07 0-3.725 1.006-4.963 3.016-1.24 2.012-1.86 4.72-1.86 8.127 0 4.96 1.605 7.443 4.813 7.443 2.215 0 4.053-1.005 5.51-3.017 1.457-2.011 2.187-4.528 2.187-7.553m4.229-.485c0 3.847-1.264 7.003-3.788 9.47-2.35 2.32-5.096 3.479-8.238 3.479-1.555 0-3.133-.235-4.733-.704-1.602-.47-2.665-1.014-3.194-1.631-.44-.498-.661-1.63-.661-3.39v-21.98c0-1.378-.117-2.245-.352-2.597-.176-.265-.984-.557-2.422-.882-.295-.088-.44-.234-.44-.44 0-.06.029-.176.089-.352l.176-.31c.118-.321.458-.483 1.019-.483h4.476c.62 0 .997.088 1.13.264.133.177.199.572.199 1.189v13.39c1.935-3.436 4.716-5.153 8.347-5.153 2.52 0 4.547.925 6.084 2.774 1.54 1.85 2.308 4.303 2.308 7.356M77.776 71.672c0 1.996-.764 3.606-2.29 4.822-1.527 1.219-3.568 1.827-6.122 1.827-2.32 0-4.242-.41-5.769-1.232-.617-.322-.926-.733-.926-1.234V71.76c0-.645.162-1.028.485-1.145l.397-.132h.131c.263 0 .441.219.529.659.794 3.525 2.584 5.286 5.373 5.286 1.262 0 2.32-.367 3.172-1.1.853-.733 1.276-1.645 1.276-2.731 0-.822-.359-1.593-1.079-2.313-.719-.718-2.003-1.622-3.853-2.71-2.232-1.291-3.751-2.383-4.558-3.28-.808-.895-1.212-1.915-1.212-3.061 0-1.703.756-3.127 2.269-4.272 1.51-1.146 3.398-1.718 5.66-1.718 1.997 0 3.434.162 4.316.484.675.265 1.013.808 1.013 1.63v2.247c0 .44-.103.734-.311.88l-.438.309a.59.59 0 01-.353.132c-.088 0-.176-.09-.264-.265-.645-1.291-1.3-2.187-1.959-2.686-.662-.5-1.506-.748-2.533-.748-1.087 0-1.982.256-2.687.77-.704.514-1.057 1.153-1.057 1.916 0 .646.279 1.21.836 1.695.559.484 2.085 1.505 4.581 3.06 3.581 2.234 5.373 4.567 5.373 7.005"/></g><g fill="#646469"><path d="M97.29 37.702l2.37-10.397c.071-.29.107-.362.397-.362h1.988c.308 0 .326.09.398.38l2.55 10.27 2.368-10.288c.073-.29.181-.362.58-.362h2.024c.29 0 .344.054.344.38v.94c0 .2-.037.416-.344.416h-.325c-.525 0-.633.144-.85.96l-2.568 9.98c-.126.47-.162.523-.597.523h-2.169c-.38 0-.434-.235-.525-.524l-2.187-8.95-2.026 8.95c-.09.471-.18.524-.47.524h-2.333c-.252 0-.379-.089-.487-.524l-2.64-9.854c-.272-.958-.362-1.085-.796-1.085h-.253c-.525 0-.579-.109-.579-.56v-.814c0-.29.072-.362.362-.362h2.893c.29 0 .38.072.452.38l2.423 10.38zM113.979 38.371c1.446 0 2.224-.94 2.224-2.586h-.597c-1.808 0-2.983.308-2.983 1.501 0 .65.36 1.085 1.356 1.085m2.369.633c-.561.686-1.501 1.102-2.875 1.102-2.062 0-3.31-.94-3.31-2.856 0-2.514 2.17-3.074 5.28-3.074h.76v-.597c0-1.193-.597-1.555-1.881-1.555-.343 0-.831.018-1.193.11-.145.052-.235.071-.271.27l-.181.976c-.073.307-.11.362-.434.362h-1.157c-.308 0-.38-.09-.362-.362l.127-2.098c.018-.325.036-.415.307-.56.615-.343 1.826-.56 3.092-.56 2.749 0 4.412.614 4.412 3.49v3.796c0 .597.199.832.597.832.217 0 .36-.072.524-.072.145-.019.199.017.199.181v1.085c0 .163-.036.343-.272.433-.271.127-.723.2-1.247.2-.922 0-1.772-.2-2.115-1.103M124.429 32.657c.235-.85.904-2.495 2.749-2.495.289 0 .596.054.795.144.289.11.289.271.289.49v1.445c0 .29-.09.29-.325.235a3.775 3.775 0 00-.723-.09c-2.007 0-2.767 2.405-2.767 3.977l-.018 3.11c0 .434-.108.525-.506.525h-1.43c-.397 0-.505-.09-.505-.525v-6.599c-.036-.435-.2-.597-1.05-.597-.27 0-.324-.163-.324-.398v-.994c0-.272.072-.362.379-.38l3.02-.162c.344 0 .416.144.416.505v1.81zM133.958 37.955l1.627-7.196c.073-.29.127-.38.434-.38h1.826c.326 0 .344.126.398.416l1.718 7.105 1.555-7.14c.054-.29.108-.38.362-.364l2.495.11c.253.017.344.071.344.343v1.03c0 .235-.072.398-.363.398h-.433c-.488 0-.67.018-.922.941l-1.9 6.527c-.072.253-.09.272-.47.272h-2.187c-.217 0-.325-.038-.38-.254l-1.555-5.876-1.338 5.858c-.036.234-.09.272-.416.272h-2.242c-.217 0-.307-.055-.362-.254l-1.97-6.564c-.253-.868-.398-.922-.868-.922h-.398c-.235 0-.29-.09-.29-.38v-1.03c0-.29.09-.344.344-.362l2.91-.162c.272-.019.309.072.363.361l1.718 7.251zM147.825 26.003c.777 0 1.429.597 1.429 1.519 0 .995-.76 1.59-1.61 1.59-.777 0-1.392-.542-1.392-1.463 0-.996.705-1.646 1.573-1.646m-1.808 6.274l-.434-.018c-.308-.018-.362-.198-.362-.434v-.922c0-.326.073-.38.362-.398l3.038-.162c.344 0 .416.144.416.506v8.625c0 .433-.091.524-.488.524H147.1c-.397 0-.505-.091-.505-.524v-6.455c0-.542-.164-.724-.58-.742M156.341 38.117c1.266 0 2.134-.307 2.748-.524.272-.109.434-.018.434.307v1.14c0 .361-.054.416-.253.524-.344.162-1.5.578-3.183.578-3.489 0-5.099-1.77-5.099-4.809 0-3.417 1.574-5.17 4.81-5.17 1.81 0 2.514.324 2.947.577.363.181.4.344.435.741l.144 2.17c0 .308-.072.362-.27.362h-1.23c-.29 0-.362-.09-.398-.362l-.146-1.138c-.053-.29-.126-.363-.378-.399a4.23 4.23 0 00-.832-.108c-1.88 0-2.442 1.428-2.442 3.344 0 1.791.796 2.767 2.713 2.767M165.996 34.88l2.079 2.334c.796.922 1.212 1.085 1.447 1.085.217 0 .398-.055.506-.073.072 0 .109.018.109.27v1.14c0 .163-.037.27-.253.344-.217.054-.47.145-1.14.145-1.012 0-1.52-.182-2.603-1.465l-2.28-2.622v3.436c0 .433-.107.524-.505.524h-1.446c-.398 0-.507-.091-.507-.524V28.86c0-.542-.144-.723-.578-.742l-.416-.017c-.326-.02-.38-.2-.38-.435v-.922c0-.325.072-.38.38-.397l3.02-.163c.343 0 .433.144.433.506v7.775l3.508-3.743c.272-.253.524-.38.796-.343l1.537.108c.272.037.36.09.36.398v.958c0 .235-.071.416-.36.416h-.923c-.343 0-.487.127-.994.687l-1.79 1.935zM95.609 58.458h1.682c1.265 0 2.585-.271 2.585-2.007 0-1.808-.994-2.206-2.748-2.206h-1.52v4.213zm0-6.111h1.573c1.482 0 2.078-.507 2.078-1.826 0-1.339-.884-1.61-2.06-1.61h-1.592v3.436zm3.978.885v.018c1.897.199 3.145 1.32 3.145 3.183 0 3.309-2.458 3.779-5.821 3.779h-3.292c-.505 0-.614-.091-.614-.488v-9.909c0-.615-.145-.832-.615-.886-.162-.018-.325-.018-.542-.018-.29 0-.343-.127-.343-.362v-1.012c0-.308.09-.38.397-.38h4.973c3.29 0 5.153.778 5.153 3.218 0 1.845-1.176 2.694-2.442 2.857zM111.176 55.167v-4.05c0-.416.108-.524.506-.524h1.429c.398 0 .524.108.524.524v6.545c0 .561.163.832.524.832.344 0 .398-.072.597-.072.127-.019.18.017.18.181v1.085c0 .18-.053.361-.252.433-.29.127-.615.199-1.483.199-.796 0-1.646-.271-1.935-1.284-.614.941-1.772 1.303-3.128 1.303-1.9 0-3.182-.778-3.182-3.346v-3.761c0-.56-.11-.741-1.05-.741-.27 0-.325-.163-.325-.398v-.994c0-.272.073-.362.38-.38l3.02-.162c.343 0 .416.144.416.506v5.677c0 .941.398 1.591 1.5 1.591 1.5 0 2.279-1.157 2.279-3.164M123.778 53.45c0 .307-.073.36-.271.36h-1.411c-.271 0-.307-.053-.361-.36l-.091-.579c-.072-.47-.253-.543-.596-.579-.308-.054-.561-.054-.905-.054-1.012 0-1.754.307-1.754 1.05 0 2.096 5.696-.183 5.696 3.958 0 2.785-2.17 3.11-4.321 3.11-1.899 0-3.092-.289-3.454-.416-.253-.09-.289-.162-.289-.416v-1.247c0-.217.054-.27.271-.217.579.11 1.899.416 3.255.416 1.555 0 2.242-.398 2.242-1.067 0-1.88-5.696.217-5.696-4.014 0-1.953 1.193-3.02 4.05-3.02 1.483 0 2.55.271 3.02.452.38.145.416.235.434.58l.181 2.042zM127.7 46.217c.778 0 1.43.597 1.43 1.519 0 .995-.76 1.59-1.61 1.59-.777 0-1.392-.542-1.392-1.463 0-.996.705-1.646 1.573-1.646m-1.808 6.274l-.434-.018c-.307-.018-.362-.198-.362-.434v-.922c0-.326.073-.38.362-.398l3.038-.162c.343 0 .415.144.415.506v8.625c0 .433-.09.524-.488.524h-1.446c-.398 0-.506-.091-.506-.524v-6.455c0-.543-.163-.724-.58-.742M130.955 52.491c-.27 0-.325-.163-.325-.398v-.995c0-.27.072-.36.38-.379l2.874-.163c.344 0 .416.145.416.506v1.14c.47-1.284 1.79-1.827 3.31-1.827 1.681 0 2.928.778 2.928 3.165v4.122c0 .56.181.832.525.832.344 0 .397-.072.597-.072.126-.019.18.017.18.18v1.085c0 .181-.054.362-.253.434-.289.127-.632.2-1.483.2-.958 0-2.024-.398-2.024-2.08v-4.376c0-.85-.38-1.465-1.375-1.465-1.5 0-2.26 1.41-2.26 3.834v3.453c0 .434-.109.525-.507.525h-1.428c-.398 0-.506-.09-.506-.525v-6.455c0-.56-.109-.74-1.049-.74M145.365 54.534h3.979c0-1.555-.688-2.296-1.845-2.296-1.103 0-1.953.614-2.134 2.296m6.49.777c0 .597-.071.851-.758.851h-5.713c.252 1.627 1.247 2.17 3.019 2.17 1.013 0 1.953-.182 2.567-.38.344-.127.543-.218.706-.218.163 0 .216.072.216.254v1.157c0 .326-.072.47-.433.615-.741.361-1.99.58-3.273.58-3.87 0-5.461-1.99-5.461-4.956 0-2.929 1.555-5.009 4.72-5.009 3.309 0 4.41 2.224 4.41 4.936M160.987 53.45c0 .307-.072.36-.271.36h-1.411c-.27 0-.306-.053-.361-.36l-.091-.579c-.072-.47-.253-.543-.596-.579-.307-.054-.561-.054-.904-.054-1.012 0-1.754.307-1.754 1.05 0 2.096 5.696-.183 5.696 3.958 0 2.785-2.17 3.11-4.322 3.11-1.898 0-3.091-.289-3.454-.416-.253-.09-.289-.162-.289-.416v-1.247c0-.217.055-.27.272-.217.578.11 1.898.416 3.255.416 1.554 0 2.242-.398 2.242-1.067 0-1.88-5.697.217-5.697-4.014 0-1.953 1.194-3.02 4.051-3.02 1.483 0 2.549.271 3.02.452.38.145.416.235.433.58l.181 2.042zM170.352 53.45c0 .307-.072.36-.27.36h-1.412c-.27 0-.306-.053-.36-.36l-.092-.579c-.072-.47-.253-.543-.596-.579-.307-.054-.56-.054-.904-.054-1.012 0-1.754.307-1.754 1.05 0 2.096 5.696-.183 5.696 3.958 0 2.785-2.17 3.11-4.322 3.11-1.898 0-3.09-.289-3.454-.416-.253-.09-.289-.162-.289-.416v-1.247c0-.217.055-.27.272-.217.578.11 1.898.416 3.255.416 1.554 0 2.242-.398 2.242-1.067 0-1.88-5.697.217-5.697-4.014 0-1.953 1.194-3.02 4.051-3.02 1.483 0 2.55.271 3.02.452.38.145.416.235.433.58l.181 2.042zM101.087 70.627c.036.325-.072.361-.27.361h-1.249c-.27 0-.325-.036-.379-.361l-.073-.471c-.126-.741-.18-.958-.922-1.085-.416-.072-.994-.09-1.338-.09-1.465 0-2.567.398-2.567 1.664 0 3.002 7.088.832 7.088 6.075 0 2.911-2.152 3.924-5.443 3.924-2.279 0-3.689-.47-3.96-.579-.289-.108-.289-.163-.289-.452v-1.284c0-.361.072-.38.38-.307.705.145 2.133.56 3.778.56 1.953 0 3.075-.56 3.075-1.862 0-3.2-7.035-.886-7.035-5.895 0-3.236 2.912-3.652 4.901-3.652 1.482 0 2.621.217 3.273.416.651.181.831.397.885.958l.145 2.08zM108.03 78.546c1.266 0 2.134-.307 2.749-.524.27-.11.434-.018.434.307v1.14c0 .36-.055.416-.254.524-.343.162-1.5.578-3.182.578-3.49 0-5.1-1.771-5.1-4.81 0-3.416 1.574-5.171 4.81-5.171 1.809 0 2.514.326 2.948.579.362.18.398.344.434.74l.144 2.17c0 .309-.072.363-.271.363h-1.23c-.29 0-.361-.09-.397-.362l-.145-1.138c-.054-.291-.126-.363-.38-.4a4.21 4.21 0 00-.831-.107c-1.88 0-2.441 1.428-2.441 3.344 0 1.79.795 2.767 2.712 2.767M115.045 80.427h-1.447c-.398 0-.506-.091-.506-.524V69.288c0-.542-.145-.722-.579-.741l-.415-.017c-.326-.02-.38-.2-.38-.435v-.922c0-.325.072-.38.38-.397l3.02-.163c.343 0 .433.144.433.506v4.972c.56-1.05 1.754-1.501 3.146-1.501 1.682 0 2.93.778 2.93 3.165v4.122c0 .56.18.832.542.832.326 0 .398-.072.58-.072.125-.02.18.018.18.18v1.086c0 .18-.037.36-.254.433-.289.127-.614.199-1.464.199-.958 0-2.043-.397-2.043-2.08V74.08c0-.85-.38-1.465-1.357-1.465-1.518 0-2.26 1.41-2.26 3.834v3.454c0 .433-.109.524-.506.524M126.418 75.635c0 1.972.705 3.165 2.224 3.165 1.537 0 2.242-1.193 2.242-3.165 0-2.007-.705-3.182-2.242-3.182-1.52 0-2.224 1.175-2.224 3.182m2.224-5.045c3.453 0 4.846 2.315 4.846 5.027 0 2.695-1.393 5.045-4.846 5.045-3.454 0-4.828-2.35-4.828-5.045 0-2.712 1.374-5.027 4.828-5.027M137.284 75.635c0 1.972.705 3.165 2.224 3.165 1.537 0 2.242-1.193 2.242-3.165 0-2.007-.705-3.182-2.242-3.182-1.519 0-2.224 1.175-2.224 3.182m2.224-5.045c3.453 0 4.846 2.315 4.846 5.027 0 2.695-1.393 5.045-4.846 5.045-3.454 0-4.828-2.35-4.828-5.045 0-2.712 1.374-5.027 4.828-5.027M145.673 68.565l-.416-.019c-.326-.017-.38-.198-.38-.433v-.922c0-.326.072-.38.38-.398l3.02-.163c.344 0 .434.145.434.506v12.766c0 .434-.109.524-.507.524h-1.446c-.398 0-.507-.09-.507-.524v-10.74c-.036-.435-.199-.579-.578-.597"/></g></g></svg>