<?xml version="1.0" encoding="UTF-8"?>
<svg width="324px" height="324px" viewBox="0 0 324 324" version="1.1" xmlns="http://www.w3.org/2000/svg" xmlns:xlink="http://www.w3.org/1999/xlink">
    <!-- Generator: Sketch 57.1 (83088) - https://sketch.com -->
    <title>wbs-logo</title>
    <desc>Created with Sketch.</desc>
    <g id="Page-1" stroke="none" stroke-width="1" fill="none" fill-rule="evenodd">
        <g id="wbs-logo" fill-rule="nonzero">
            <polygon id="Fill-1" fill="#135496" points="0.103 323.358 323.974 323.358 323.974 0.096 0.103 0.096"></polygon>
            <path d="M151.46,226.111 C151.46,226.466 151.342,226.881 151.107,227.351 L150.222,229.832 C149.982,230.542 149.274,231.193 148.093,231.784 L146.144,232.138 L143.664,232.847 C140.353,233.793 137.636,237.042 135.51,242.593 L109.811,308.348 C108.509,311.538 107.212,313.135 105.913,313.135 L103.429,313.135 C101.894,313.135 100.653,311.835 99.708,309.235 L79.504,251.633 L56.994,308.703 C55.812,311.66 54.511,313.135 53.097,313.135 L50.613,313.135 C49.31,313.135 48.07,311.538 46.892,308.348 L23.85,246.317 C21.606,240.409 19.95,236.745 18.891,235.328 C17.825,233.911 15.579,232.73 12.155,231.784 C10.616,231.312 9.847,230.781 9.847,230.189 C9.847,230.072 9.965,229.716 10.202,229.123 L11.089,226.642 C11.561,225.226 13.1,224.517 15.7,224.517 L42.994,224.517 C46.064,224.517 47.6,225.109 47.6,226.288 C47.6,226.642 47.482,227.058 47.247,227.529 L46.892,228.947 C46.298,230.13 44.705,231.134 42.105,231.96 C39.152,232.906 37.676,234.736 37.676,237.453 C37.676,239.226 37.971,240.94 38.562,242.593 L54.869,289.739 L77.731,228.06 C78.555,225.699 79.797,224.517 81.453,224.517 L84.82,224.517 C85.885,224.517 86.886,225.994 87.834,228.947 L107.685,289.739 L125.408,241.353 C126.473,238.402 127.004,236.63 127.004,236.038 C127.004,234.736 126.528,233.821 125.583,233.289 C124.635,232.758 122.454,232.138 119.026,231.429 C117.37,231.075 116.546,230.484 116.546,229.656 C116.546,229.302 116.663,228.888 116.901,228.417 L117.788,226.111 C118.142,225.05 119.794,224.517 122.748,224.517 L147.386,224.517 C150.222,224.517 151.577,225.05 151.46,226.111" id="Fill-2" fill="#FFFFFE"></path>
            <path d="M225.188,265.105 C225.188,255.417 223.073,247.616 218.855,241.708 C214.623,235.8 209.115,232.847 202.306,232.847 C193.977,232.847 187.316,236.896 182.335,244.988 C177.345,253.082 174.851,263.983 174.851,277.687 C174.851,297.655 181.306,307.641 194.214,307.641 C203.13,307.641 210.525,303.593 216.391,295.498 C222.255,287.409 225.188,277.277 225.188,265.105 Z M242.205,263.155 C242.205,278.635 237.12,291.333 226.963,301.26 C217.504,310.594 206.456,315.26 193.813,315.26 C187.554,315.26 181.205,314.315 174.768,312.428 C168.325,310.538 164.043,308.348 161.917,305.868 C160.144,303.86 159.255,299.31 159.255,292.222 L159.255,203.78 C159.255,198.226 158.782,194.741 157.837,193.321 C157.13,192.26 153.88,191.079 148.093,189.778 C146.907,189.423 146.32,188.833 146.32,188.005 C146.32,187.769 146.437,187.296 146.678,186.587 L147.39,185.347 C147.862,184.048 149.232,183.398 151.49,183.398 L169.501,183.398 C171.999,183.398 173.514,183.751 174.049,184.46 C174.583,185.171 174.851,186.765 174.851,189.247 L174.851,243.126 C182.632,229.302 193.827,222.389 208.438,222.389 C218.574,222.389 226.733,226.111 232.917,233.556 C239.117,240.999 242.205,250.866 242.205,263.155 L242.205,263.155 Z" id="Fill-3" fill="#FFFFFE"></path>
            <path d="M311.497,288.5 C311.497,296.534 308.423,303.006 302.283,307.904 C296.137,312.81 287.924,315.26 277.649,315.26 C268.31,315.26 260.573,313.605 254.433,310.297 C251.946,309 250.706,307.348 250.706,305.334 L250.706,288.853 C250.706,286.255 251.359,284.718 252.659,284.244 L254.255,283.714 L254.782,283.714 C255.843,283.714 256.556,284.599 256.913,286.37 C260.105,300.553 267.307,307.641 278.533,307.641 C283.612,307.641 287.866,306.162 291.295,303.208 C294.726,300.259 296.434,296.593 296.434,292.222 C296.434,288.915 294.986,285.813 292.091,282.916 C289.195,280.024 284.027,276.388 276.587,272.016 C267.604,266.815 261.493,262.417 258.242,258.81 C254.99,255.207 253.363,251.102 253.363,246.493 C253.363,239.642 256.408,233.911 262.496,229.302 C268.576,224.693 276.172,222.389 285.274,222.389 C293.308,222.389 299.091,223.039 302.64,224.339 C305.357,225.402 306.716,227.59 306.716,230.896 L306.716,239.936 C306.716,241.708 306.3,242.89 305.469,243.481 L303.702,244.722 C303.226,245.075 302.759,245.252 302.283,245.252 C301.928,245.252 301.571,244.899 301.222,244.189 C298.623,238.991 295.988,235.388 293.337,233.378 C290.672,231.37 287.278,230.365 283.143,230.365 C278.77,230.365 275.17,231.4 272.333,233.467 C269.498,235.534 268.079,238.106 268.079,241.177 C268.079,243.778 269.201,246.049 271.442,248 C273.692,249.949 279.832,254.057 289.877,260.317 C304.288,269.299 311.497,278.691 311.497,288.5" id="Fill-4" fill="#FFFFFE"></path>
        </g>
    </g>
</svg>