<?xml version="1.0" encoding="UTF-8"?>
<svg width="324px" height="385px" viewBox="0 0 324 385" version="1.1" xmlns="http://www.w3.org/2000/svg" xmlns:xlink="http://www.w3.org/1999/xlink">
    <!-- Generator: Sketch 55.2 (78181) - https://sketchapp.com -->
    <title>wbs-logo</title>
    <desc>Created with Sketch.</desc>
    <defs>
        <polygon id="path-1" points="0.979 0.186 31.888 0.186 31.888 15.94 0.979 15.94"></polygon>
        <polygon id="path-3" points="0.979 0.186 31.888 0.186 31.888 15.94 0.979 15.94"></polygon>
        <polygon id="path-5" points="0.192 0.919 34.212 0.919 34.212 16.94 0.192 16.94"></polygon>
        <polygon id="path-7" points="0.192 0.919 34.212 0.919 34.212 16.94 0.192 16.94"></polygon>
        <polygon id="path-9" points="0.192 0.919 34.212 0.919 34.212 16.94 0.192 16.94"></polygon>
        <polygon id="path-11" points="0.819 0.919 36.889 0.919 36.889 16.94 0.819 16.94"></polygon>
        <polygon id="path-13" points="0.819 0.919 36.889 0.919 36.889 16.94 0.819 16.94"></polygon>
        <polygon id="path-15" points="0.936 0.186 27.42 0.186 27.42 15.94 0.936 15.94"></polygon>
        <polygon id="path-17" points="0.936 0.186 27.42 0.186 27.42 15.94 0.936 15.94"></polygon>
        <polygon id="path-19" points="0.883 0.919 34.593 0.919 34.593 16.94 0.883 16.94"></polygon>
        <polygon id="path-21" points="0.883 0.919 34.593 0.919 34.593 16.94 0.883 16.94"></polygon>
        <polygon id="path-23" points="0.883 0.919 34.593 0.919 34.593 16.94 0.883 16.94"></polygon>
    </defs>
    <g id="Desktop" stroke="none" stroke-width="1" fill="none" fill-rule="evenodd">
        <g id="wbs-logo">
            <polygon id="Fill-1" fill="#135496" fill-rule="nonzero" points="0.103 323.358 323.974 323.358 323.974 0.096 0.103 0.096"></polygon>
            <path d="M151.46,226.111 C151.46,226.466 151.342,226.881 151.107,227.351 L150.222,229.832 C149.982,230.542 149.274,231.193 148.093,231.784 L146.144,232.138 L143.664,232.847 C140.353,233.793 137.636,237.042 135.51,242.593 L109.811,308.348 C108.509,311.538 107.212,313.135 105.913,313.135 L103.429,313.135 C101.894,313.135 100.653,311.835 99.708,309.235 L79.504,251.633 L56.994,308.703 C55.812,311.66 54.511,313.135 53.097,313.135 L50.613,313.135 C49.31,313.135 48.07,311.538 46.892,308.348 L23.85,246.317 C21.606,240.409 19.95,236.745 18.891,235.328 C17.825,233.911 15.579,232.73 12.155,231.784 C10.616,231.312 9.847,230.781 9.847,230.189 C9.847,230.072 9.965,229.716 10.202,229.123 L11.089,226.642 C11.561,225.226 13.1,224.517 15.7,224.517 L42.994,224.517 C46.064,224.517 47.6,225.109 47.6,226.288 C47.6,226.642 47.482,227.058 47.247,227.529 L46.892,228.947 C46.298,230.13 44.705,231.134 42.105,231.96 C39.152,232.906 37.676,234.736 37.676,237.453 C37.676,239.226 37.971,240.94 38.562,242.593 L54.869,289.739 L77.731,228.06 C78.555,225.699 79.797,224.517 81.453,224.517 L84.82,224.517 C85.885,224.517 86.886,225.994 87.834,228.947 L107.685,289.739 L125.408,241.353 C126.473,238.402 127.004,236.63 127.004,236.038 C127.004,234.736 126.528,233.821 125.583,233.289 C124.635,232.758 122.454,232.138 119.026,231.429 C117.37,231.075 116.546,230.484 116.546,229.656 C116.546,229.302 116.663,228.888 116.901,228.417 L117.788,226.111 C118.142,225.05 119.794,224.517 122.748,224.517 L147.386,224.517 C150.222,224.517 151.577,225.05 151.46,226.111" id="Fill-2" fill="#FFFFFE" fill-rule="nonzero"></path>
            <path d="M225.188,265.105 C225.188,255.417 223.073,247.616 218.855,241.708 C214.623,235.8 209.115,232.847 202.306,232.847 C193.977,232.847 187.316,236.896 182.335,244.988 C177.345,253.082 174.851,263.983 174.851,277.687 C174.851,297.655 181.306,307.641 194.214,307.641 C203.13,307.641 210.525,303.593 216.391,295.498 C222.255,287.409 225.188,277.277 225.188,265.105 Z M242.205,263.155 C242.205,278.635 237.12,291.333 226.963,301.26 C217.504,310.594 206.456,315.26 193.813,315.26 C187.554,315.26 181.205,314.315 174.768,312.428 C168.325,310.538 164.043,308.348 161.917,305.868 C160.144,303.86 159.255,299.31 159.255,292.222 L159.255,203.78 C159.255,198.226 158.782,194.741 157.837,193.321 C157.13,192.26 153.88,191.079 148.093,189.778 C146.907,189.423 146.32,188.833 146.32,188.005 C146.32,187.769 146.437,187.296 146.678,186.587 L147.39,185.347 C147.862,184.048 149.232,183.398 151.49,183.398 L169.501,183.398 C171.999,183.398 173.514,183.751 174.049,184.46 C174.583,185.171 174.851,186.765 174.851,189.247 L174.851,243.126 C182.632,229.302 193.827,222.389 208.438,222.389 C218.574,222.389 226.733,226.111 232.917,233.556 C239.117,240.999 242.205,250.866 242.205,263.155 L242.205,263.155 Z" id="Fill-3" fill="#FFFFFE" fill-rule="nonzero"></path>
            <path d="M311.497,288.5 C311.497,296.534 308.423,303.006 302.283,307.904 C296.137,312.81 287.924,315.26 277.649,315.26 C268.31,315.26 260.573,313.605 254.433,310.297 C251.946,309 250.706,307.348 250.706,305.334 L250.706,288.853 C250.706,286.255 251.359,284.718 252.659,284.244 L254.255,283.714 L254.782,283.714 C255.843,283.714 256.556,284.599 256.913,286.37 C260.105,300.553 267.307,307.641 278.533,307.641 C283.612,307.641 287.866,306.162 291.295,303.208 C294.726,300.259 296.434,296.593 296.434,292.222 C296.434,288.915 294.986,285.813 292.091,282.916 C289.195,280.024 284.027,276.388 276.587,272.016 C267.604,266.815 261.493,262.417 258.242,258.81 C254.99,255.207 253.363,251.102 253.363,246.493 C253.363,239.642 256.408,233.911 262.496,229.302 C268.576,224.693 276.172,222.389 285.274,222.389 C293.308,222.389 299.091,223.039 302.64,224.339 C305.357,225.402 306.716,227.59 306.716,230.896 L306.716,239.936 C306.716,241.708 306.3,242.89 305.469,243.481 L303.702,244.722 C303.226,245.075 302.759,245.252 302.283,245.252 C301.928,245.252 301.571,244.899 301.222,244.189 C298.623,238.991 295.988,235.388 293.337,233.378 C290.672,231.37 287.278,230.365 283.143,230.365 C278.77,230.365 275.17,231.4 272.333,233.467 C269.498,235.534 268.079,238.106 268.079,241.177 C268.079,243.778 269.201,246.049 271.442,248 C273.692,249.949 279.832,254.057 289.877,260.317 C304.288,269.299 311.497,278.691 311.497,288.5" id="Fill-4" fill="#FFFFFE" fill-rule="nonzero"></path>
            <polyline id="Fill-5" fill="#FFFFFF" fill-rule="nonzero" points="21.417 338.601 16.445 354.595 14.536 354.595 10.714 341.754 6.8 354.595 4.823 354.595 0.103 338.736 2.219 338.275 6.018 351.695 9.978 338.487 11.726 338.487 15.64 351.695 19.622 338.275 21.417 338.601"></polyline>
            <path d="M30.807,348.265 L28.343,341.338 L25.673,348.265 L30.807,348.265 Z M35.434,354.595 L32.996,354.595 L31.36,349.875 L25.076,349.875 L23.326,354.595 L21.323,354.595 L27.93,338.487 L29.404,338.487 L35.434,354.595 L35.434,354.595 Z" id="Fill-6" fill="#FFFFFF" fill-rule="nonzero"></path>
            <path d="M45.468,342.857 C45.468,341.784 45.125,341.003 44.435,340.509 C44.02,340.233 43.291,340.098 42.246,340.098 L40.797,340.098 L40.797,346.286 L41.811,346.286 C43.1,346.286 44.029,345.97 44.607,345.333 C45.182,344.695 45.468,343.869 45.468,342.857 Z M49.152,354.204 L46.873,354.872 L43.144,347.923 L40.797,347.923 L40.797,354.595 L38.563,354.595 L38.563,338.487 L42.318,338.487 C44.218,338.487 45.548,338.777 46.298,339.359 C47.326,340.14 47.841,341.245 47.841,342.673 C47.841,344.637 46.945,346.188 45.147,347.322 L49.152,354.204 L49.152,354.204 Z" id="Fill-7" fill="#FFFFFF" fill-rule="nonzero"></path>
            <polyline id="Fill-8" fill="#FFFFFF" fill-rule="nonzero" points="71.984 338.601 67.014 354.595 65.104 354.595 61.285 341.754 57.368 354.595 55.391 354.595 50.672 338.736 52.788 338.275 56.587 351.695 60.546 338.487 62.296 338.487 66.21 351.695 70.19 338.275 71.984 338.601"></polyline>
            <polygon id="Fill-9" fill="#FFFFFF" fill-rule="nonzero" points="75.232 354.595 77.465 354.595 77.465 338.487 75.232 338.487"></polygon>
            <path d="M94.517,339.818 L93.599,341.225 C92.232,340.287 90.813,339.818 89.34,339.818 C87.468,339.818 85.958,340.427 84.804,341.646 C83.658,342.867 83.079,344.469 83.079,346.448 C83.079,348.428 83.681,350.056 84.887,351.339 C86.091,352.622 87.629,353.263 89.5,353.263 C90.943,353.263 92.264,352.873 93.461,352.087 L94.313,353.399 C92.823,354.383 91.083,354.872 89.087,354.872 C86.618,354.872 84.587,354.106 83.001,352.57 C81.411,351.038 80.617,349.072 80.617,346.677 C80.617,344.252 81.457,342.238 83.136,340.623 C84.818,339.014 86.915,338.21 89.431,338.21 C91.198,338.21 92.892,338.743 94.517,339.818" id="Fill-10" fill="#FFFFFF" fill-rule="nonzero"></path>
            <polyline id="Fill-11" fill="#FFFFFF" fill-rule="nonzero" points="109.113 354 106.88 354.85 99.743 346.216 99.743 354.595 97.511 354.595 97.511 338.487 99.743 338.487 99.743 345.711 106.718 338.275 108.261 339.268 101.999 345.805 109.113 354"></polyline>
            <path d="M126.88,350.06 C126.88,348.851 126.398,347.989 125.43,347.484 C124.816,347.16 123.936,347.001 122.784,347.001 L121.22,347.001 L121.22,353.029 L122.992,353.029 C124.247,353.029 125.169,352.817 125.753,352.386 C126.507,351.834 126.88,351.058 126.88,350.06 Z M126.097,342.303 C126.097,341.414 125.723,340.771 124.971,340.371 C124.57,340.153 123.81,340.049 122.69,340.049 L121.22,340.049 L121.22,345.414 L122.023,345.414 C123.343,345.414 124.353,345.1 125.052,344.481 C125.749,343.857 126.097,343.132 126.097,342.303 Z M129.229,349.966 C129.229,351.626 128.475,352.893 126.973,353.766 C126.021,354.318 124.719,354.595 123.06,354.595 L119.055,354.595 L119.055,338.487 L123.269,338.487 C125.017,338.487 126.237,338.714 126.927,339.175 C127.817,339.755 128.262,340.648 128.262,341.844 C128.262,343.947 127.14,345.289 124.901,345.874 C125.807,345.933 126.527,346.094 127.066,346.357 C127.739,346.677 128.269,347.16 128.652,347.806 C129.037,348.449 129.229,349.172 129.229,349.966 L129.229,349.966 Z" id="Fill-12" fill="#FFFFFF" fill-rule="nonzero"></path>
            <path d="M145.387,347.62 C145.387,349.079 145.303,350.152 145.134,350.844 C144.965,351.534 144.628,352.187 144.122,352.8 C142.986,354.184 141.305,354.872 139.079,354.872 C136.455,354.872 134.646,353.951 133.649,352.109 C133.31,351.497 133.097,350.738 133.004,349.833 C132.958,349.399 132.933,348.605 132.933,347.436 L132.933,338.487 L135.167,338.487 L135.167,347.484 C135.167,348.574 135.198,349.342 135.259,349.786 C135.382,350.63 135.652,351.328 136.063,351.88 C136.755,352.8 137.8,353.263 139.197,353.263 C141.035,353.263 142.27,352.518 142.903,351.028 C143.178,350.37 143.315,349.172 143.315,347.436 L143.315,338.487 L145.387,338.487 L145.387,347.62" id="Fill-13" fill="#FFFFFF" fill-rule="nonzero"></path>
            <path d="M158.506,350.521 C158.506,351.782 158.015,352.821 157.032,353.641 C156.05,354.463 154.8,354.872 153.281,354.872 C151.609,354.872 150.073,354.366 148.677,353.355 L149.737,351.858 C151.042,352.795 152.23,353.263 153.304,353.263 C154.164,353.263 154.852,353.029 155.375,352.57 C155.898,352.109 156.158,351.497 156.158,350.731 C156.158,349.886 155.689,349.049 154.754,348.22 C154.523,347.989 153.58,347.238 151.923,345.966 C150.266,344.735 149.437,343.45 149.437,342.097 C149.437,340.977 149.896,340.049 150.819,339.311 C151.739,338.578 152.903,338.21 154.317,338.21 C155.79,338.21 157.125,338.691 158.322,339.659 L157.101,340.97 C156.118,340.202 155.168,339.818 154.246,339.818 C153.526,339.818 152.939,340.016 152.487,340.406 C152.033,340.797 151.806,341.308 151.806,341.935 C151.806,342.673 152.26,343.41 153.165,344.146 C153.335,344.287 154.179,344.931 155.697,346.082 C156.742,346.862 157.469,347.584 157.884,348.243 C158.298,348.903 158.506,349.661 158.506,350.521" id="Fill-14" fill="#FFFFFF" fill-rule="nonzero"></path>
            <polygon id="Fill-15" fill="#FFFFFF" fill-rule="nonzero" points="162.557 354.595 164.791 354.595 164.791 338.487 162.557 338.487"></polygon>
            <polyline id="Fill-16" fill="#FFFFFF" fill-rule="nonzero" points="182.537 354.595 180.97 354.595 171.393 342.054 171.393 354.595 169.574 354.595 169.574 338.487 171.003 338.487 180.695 351.099 180.695 338.487 182.537 338.487 182.537 354.595"></polyline>
            <polyline id="Fill-17" fill="#FFFFFF" fill-rule="nonzero" points="196.323 354.595 187.323 354.595 187.323 338.487 195.335 338.487 195.335 340.098 189.554 340.098 189.554 345.321 195.214 345.321 195.214 346.954 189.554 346.954 189.554 352.985 196.323 352.985 196.323 354.595"></polyline>
            <path d="M208.173,350.521 C208.173,351.782 207.69,352.821 206.708,353.641 C205.725,354.463 204.468,354.872 202.951,354.872 C201.278,354.872 199.745,354.366 198.346,353.355 L199.403,351.858 C200.712,352.795 201.902,353.263 202.974,353.263 C203.836,353.263 204.521,353.029 205.049,352.57 C205.569,352.109 205.83,351.497 205.83,350.731 C205.83,349.886 205.361,349.049 204.424,348.22 C204.194,347.989 203.249,347.238 201.597,345.966 C199.938,344.735 199.106,343.45 199.106,342.097 C199.106,340.977 199.566,340.049 200.489,339.311 C201.411,338.578 202.572,338.21 203.985,338.21 C205.457,338.21 206.797,338.691 207.994,339.659 L206.774,340.97 C205.792,340.202 204.841,339.818 203.917,339.818 C203.197,339.818 202.608,340.016 202.155,340.406 C201.709,340.797 201.478,341.308 201.478,341.935 C201.478,342.673 201.932,343.41 202.839,344.146 C203.003,344.287 203.851,344.931 205.369,346.082 C206.41,346.862 207.139,347.584 207.555,348.243 C207.973,348.903 208.173,349.661 208.173,350.521" id="Fill-18" fill="#FFFFFF" fill-rule="nonzero"></path>
            <path d="M221.339,350.521 C221.339,351.782 220.856,352.821 219.874,353.641 C218.892,354.463 217.635,354.872 216.118,354.872 C214.443,354.872 212.911,354.366 211.513,353.355 L212.569,351.858 C213.878,352.795 215.069,353.263 216.139,353.263 C217.002,353.263 217.687,353.029 218.215,352.57 C218.736,352.109 218.996,351.497 218.996,350.731 C218.996,349.886 218.528,349.049 217.589,348.22 C217.36,347.989 216.415,347.238 214.763,345.966 C213.105,344.735 212.272,343.45 212.272,342.097 C212.272,340.977 212.732,340.049 213.654,339.311 C214.578,338.578 215.737,338.21 217.15,338.21 C218.624,338.21 219.963,338.691 221.16,339.659 L219.941,340.97 C218.959,340.202 218.006,339.818 217.084,339.818 C216.363,339.818 215.775,340.016 215.321,340.406 C214.875,340.797 214.645,341.308 214.645,341.935 C214.645,342.673 215.098,343.41 216.006,344.146 C216.17,344.287 217.017,344.931 218.534,346.082 C219.576,346.862 220.305,347.584 220.721,348.243 C221.138,348.903 221.339,349.661 221.339,350.521" id="Fill-19" fill="#FFFFFF" fill-rule="nonzero"></path>
            <path d="M241.46,350.521 C241.46,351.782 240.969,352.821 239.987,353.641 C239.005,354.463 237.756,354.872 236.231,354.872 C234.557,354.872 233.024,354.366 231.626,353.355 L232.689,351.858 C233.992,352.795 235.182,353.263 236.26,353.263 C237.115,353.263 237.808,353.029 238.328,352.57 C238.849,352.109 239.109,351.497 239.109,350.731 C239.109,349.886 238.641,349.049 237.704,348.22 C237.48,347.989 236.535,347.238 234.876,345.966 C233.218,344.735 232.392,343.45 232.392,342.097 C232.392,340.977 232.847,340.049 233.769,339.311 C234.691,338.578 235.859,338.21 237.265,338.21 C238.745,338.21 240.076,338.691 241.273,339.659 L240.054,340.97 C239.072,340.202 238.12,339.818 237.205,339.818 C236.476,339.818 235.896,340.016 235.442,340.406 C234.988,340.797 234.758,341.308 234.758,341.935 C234.758,342.673 235.211,343.41 236.119,344.146 C236.29,344.287 237.13,344.931 238.649,346.082 C239.69,346.862 240.426,347.584 240.834,348.243 C241.252,348.903 241.46,349.661 241.46,350.521" id="Fill-20" fill="#FFFFFF" fill-rule="nonzero"></path>
            <path d="M257.736,339.818 L256.812,341.225 C255.444,340.287 254.03,339.818 252.55,339.818 C250.684,339.818 249.166,340.427 248.02,341.646 C246.867,342.867 246.295,344.469 246.295,346.448 C246.295,348.428 246.898,350.056 248.103,351.339 C249.3,352.622 250.84,353.263 252.714,353.263 C254.157,353.263 255.481,352.873 256.671,352.087 L257.52,353.399 C256.04,354.383 254.292,354.872 252.305,354.872 C249.828,354.872 247.797,354.106 246.213,352.57 C244.621,351.038 243.833,349.072 243.833,346.677 C243.833,344.252 244.673,342.238 246.355,340.623 C248.028,339.014 250.126,338.21 252.648,338.21 C254.41,338.21 256.106,338.743 257.736,339.818" id="Fill-21" fill="#FFFFFF" fill-rule="nonzero"></path>
            <polyline id="Fill-22" fill="#FFFFFF" fill-rule="nonzero" points="273.289 354.595 271.057 354.595 271.057 346.606 263.299 346.606 263.299 354.595 261.068 354.595 261.068 338.487 263.299 338.487 263.299 344.951 271.057 344.951 271.057 338.487 273.289 338.487 273.289 354.595"></polyline>
            <path d="M290.3,346.586 C290.3,344.544 289.78,342.907 288.745,341.674 C287.711,340.436 286.336,339.818 284.618,339.818 C282.862,339.818 281.486,340.523 280.475,341.935 C279.566,343.181 279.112,344.713 279.112,346.541 C279.112,348.397 279.574,349.946 280.496,351.19 C281.508,352.57 282.914,353.263 284.706,353.263 C286.366,353.263 287.711,352.646 288.745,351.419 C289.78,350.192 290.3,348.583 290.3,346.586 Z M292.763,346.335 C292.763,348.774 292.033,350.79 290.576,352.386 C289.074,354.045 287.117,354.872 284.706,354.872 C282.296,354.872 280.34,354.045 278.838,352.386 C277.381,350.79 276.651,348.782 276.651,346.357 C276.651,343.977 277.418,342.024 278.942,340.499 C280.467,338.97 282.423,338.21 284.796,338.21 C287.057,338.21 288.947,338.981 290.472,340.531 C291.996,342.082 292.763,344.018 292.763,346.335 L292.763,346.335 Z" id="Fill-23" fill="#FFFFFF" fill-rule="nonzero"></path>
            <path d="M308.808,346.586 C308.808,344.544 308.286,342.907 307.253,341.674 C306.219,340.436 304.835,339.818 303.125,339.818 C301.369,339.818 299.993,340.523 298.981,341.935 C298.074,343.181 297.62,344.713 297.62,346.541 C297.62,348.397 298.081,349.946 299.003,351.19 C300.016,352.57 301.421,353.263 303.214,353.263 C304.873,353.263 306.219,352.646 307.253,351.419 C308.286,350.192 308.808,348.583 308.808,346.586 Z M311.27,346.335 C311.27,348.774 310.533,350.79 309.083,352.386 C307.58,354.045 305.624,354.872 303.214,354.872 C300.804,354.872 298.847,354.045 297.344,352.386 C295.887,350.79 295.157,348.782 295.157,346.357 C295.157,343.977 295.916,342.024 297.448,340.499 C298.973,338.97 300.93,338.21 303.303,338.21 C305.557,338.21 307.445,338.981 308.979,340.531 C310.504,342.082 311.27,344.018 311.27,346.335 L311.27,346.335 Z" id="Fill-24" fill="#FFFFFF" fill-rule="nonzero"></path>
            <polyline id="Fill-25" fill="#FFFFFF" fill-rule="nonzero" points="323.974 354.595 315.041 354.595 315.041 338.487 317.28 338.487 317.28 352.985 323.974 352.985 323.974 354.595"></polyline>
            <polyline id="Fill-26" fill="#FFFFFF" fill-rule="nonzero" points="5.456 384.756 5.456 370.744 0.496 370.744 0.496 369.186 12.618 369.186 12.618 370.744 7.636 370.744 7.636 384.756 5.456 384.756"></polyline>
            <polyline id="Fill-27" fill="#FFFFFF" fill-rule="nonzero" points="24.89 384.756 24.89 377.038 17.395 377.038 17.395 384.756 15.237 384.756 15.237 369.186 17.395 369.186 17.395 375.436 24.89 375.436 24.89 369.186 27.048 369.186 27.048 384.756 24.89 384.756"></polyline>
            <g id="Group-31" transform="translate(30.000000, 369.000000)">
                <g id="Fill-28-Clipped">
                    <mask id="mask-2" fill="white">
                        <use xlink:href="#path-1"></use>
                    </mask>
                    <g id="path-1"></g>
                    <polyline id="Fill-28" fill="#FFFFFF" fill-rule="nonzero" mask="url(#mask-2)" points="0.979 15.756 0.979 0.186 8.719 0.186 8.719 1.744 3.136 1.744 3.136 6.792 8.608 6.792 8.608 8.371 3.136 8.371 3.136 14.199 9.675 14.199 9.675 15.756 0.979 15.756"></polyline>
                </g>
                <g id="Fill-30-Clipped">
                    <mask id="mask-4" fill="white">
                        <use xlink:href="#path-3"></use>
                    </mask>
                    <g id="path-1"></g>
                    <path d="M29.886,0.186 L31.888,0.186 L31.888,9.016 C31.888,11.819 31.643,12.82 30.664,14.021 C29.552,15.355 27.951,16.022 25.793,16.022 C23.347,16.022 21.479,15.066 20.544,13.353 C19.988,12.33 19.855,11.44 19.855,8.838 L19.855,0.186 L22.012,0.186 L22.012,8.883 C22.012,11.352 22.19,12.219 22.879,13.131 C23.525,13.998 24.592,14.465 25.904,14.465 C27.617,14.465 28.907,13.687 29.486,12.308 C29.819,11.53 29.886,11.018 29.886,8.838 L29.886,0.186" id="Fill-30" fill="#FFFFFF" fill-rule="nonzero" mask="url(#mask-4)"></path>
                </g>
            </g>
            <polyline id="Fill-32" fill="#FFFFFF" fill-rule="nonzero" points="76.606 384.756 67.353 372.634 67.353 384.756 65.596 384.756 65.596 369.186 66.975 369.186 76.339 381.375 76.339 369.186 78.118 369.186 78.118 384.756 76.606 384.756"></polyline>
            <polygon id="Fill-33" fill="#FFFFFF" fill-rule="nonzero" points="82.026 384.756 84.183 384.756 84.183 369.186 82.026 369.186"></polygon>
            <polyline id="Fill-34" fill="#FFFFFF" fill-rule="nonzero" points="92.677 384.756 86.939 369.409 89.141 368.986 93.611 381.731 98.394 368.986 100.351 369.275 94.123 384.756 92.677 384.756"></polyline>
            <g id="Group-39" transform="translate(103.000000, 368.000000)">
                <g id="Fill-35-Clipped">
                    <mask id="mask-6" fill="white">
                        <use xlink:href="#path-5"></use>
                    </mask>
                    <g id="path-3"></g>
                    <polyline id="Fill-35" fill="#FFFFFF" fill-rule="nonzero" mask="url(#mask-6)" points="0.192 16.756 0.192 1.186 7.932 1.186 7.932 2.744 2.349 2.744 2.349 7.792 7.821 7.792 7.821 9.371 2.349 9.371 2.349 15.199 8.889 15.199 8.889 16.756 0.192 16.756"></polyline>
                </g>
                <g id="Fill-37-Clipped">
                    <mask id="mask-8" fill="white">
                        <use xlink:href="#path-7"></use>
                    </mask>
                    <g id="path-3"></g>
                    <path d="M15.312,8.726 C16.624,8.726 17.403,8.46 18.003,7.814 C18.536,7.214 18.848,6.369 18.848,5.413 C18.848,4.411 18.492,3.633 17.892,3.188 C17.425,2.855 16.869,2.744 15.734,2.744 L14.333,2.744 L14.333,8.726 L15.312,8.726 Z M20.205,17.022 L16.602,10.305 L14.333,10.305 L14.333,16.756 L12.176,16.756 L12.176,1.186 L15.801,1.186 C17.936,1.186 18.804,1.386 19.649,2.032 C20.627,2.788 21.139,3.855 21.139,5.235 C21.139,7.125 20.272,8.637 18.536,9.727 L22.407,16.378 L20.205,17.022 L20.205,17.022 Z" id="Fill-37" fill="#FFFFFF" fill-rule="nonzero" mask="url(#mask-8)"></path>
                </g>
                <g id="Fill-38-Clipped">
                    <mask id="mask-10" fill="white">
                        <use xlink:href="#path-9"></use>
                    </mask>
                    <g id="path-3"></g>
                    <path d="M25.738,14.109 C27.139,15.109 28.051,15.465 29.185,15.465 C30.831,15.465 31.944,14.509 31.944,13.019 C31.944,12.107 31.565,11.462 30.586,10.595 C30.031,10.105 29.919,9.949 27.851,8.415 C26.16,7.169 25.449,6.057 25.449,4.678 C25.449,2.499 27.451,0.919 30.164,0.919 C31.632,0.919 32.855,1.364 34.034,2.321 L32.855,3.588 C31.766,2.744 31.076,2.476 30.097,2.476 C28.696,2.476 27.74,3.299 27.74,4.523 C27.74,5.301 28.073,5.857 29.052,6.658 C29.408,6.947 29.541,7.058 31.498,8.526 C33.545,10.061 34.212,11.173 34.212,12.819 C34.212,15.265 32.099,17.022 29.163,17.022 C27.54,17.022 26.094,16.556 24.715,15.555 L25.738,14.109" id="Fill-38" fill="#FFFFFF" fill-rule="nonzero" mask="url(#mask-10)"></path>
                </g>
            </g>
            <polygon id="Fill-40" fill="#FFFFFF" fill-rule="nonzero" points="141.122 384.756 143.279 384.756 143.279 369.186 141.122 369.186"></polygon>
            <polyline id="Fill-41" fill="#FFFFFF" fill-rule="nonzero" points="151.417 384.756 151.417 370.744 146.457 370.744 146.457 369.186 158.579 369.186 158.579 370.744 153.597 370.744 153.597 384.756 151.417 384.756"></polyline>
            <g id="Group-45" transform="translate(160.000000, 368.000000)">
                <g id="Fill-42-Clipped">
                    <mask id="mask-12" fill="white">
                        <use xlink:href="#path-11"></use>
                    </mask>
                    <g id="path-5"></g>
                    <polyline id="Fill-42" fill="#FFFFFF" fill-rule="nonzero" mask="url(#mask-12)" points="5.512 16.756 5.512 10.016 0.819 1.431 3.021 0.986 6.78 8.704 11.028 0.986 12.964 1.275 7.67 10.016 7.67 16.756 5.512 16.756"></polyline>
                </g>
                <g id="Fill-44-Clipped">
                    <mask id="mask-14" fill="white">
                        <use xlink:href="#path-13"></use>
                    </mask>
                    <g id="path-5"></g>
                    <path d="M34.509,9.015 C34.509,5.079 32.352,2.476 29.016,2.476 C25.412,2.476 23.7,5.746 23.7,8.971 C23.7,12.285 25.434,15.465 29.104,15.465 C32.307,15.465 34.509,12.863 34.509,9.015 Z M21.32,8.793 C21.32,4.189 24.612,0.919 29.194,0.919 C33.553,0.919 36.889,4.3 36.889,8.771 C36.889,13.375 33.864,17.022 29.104,17.022 C24.367,17.022 21.32,13.375 21.32,8.793 L21.32,8.793 Z" id="Fill-44" fill="#FFFFFF" fill-rule="nonzero" mask="url(#mask-14)"></path>
                </g>
            </g>
            <polyline id="Fill-46" fill="#FFFFFF" fill-rule="nonzero" points="199.929 384.756 199.929 369.186 207.669 369.186 207.669 370.744 202.087 370.744 202.087 376.082 207.558 376.082 207.558 377.66 202.087 377.66 202.087 384.756 199.929 384.756"></polyline>
            <polyline id="Fill-47" fill="#FFFFFF" fill-rule="nonzero" points="232.126 384.756 228.434 372.345 224.653 384.756 222.74 384.756 218.18 369.431 220.227 368.986 223.897 381.953 227.722 369.186 229.413 369.186 233.194 381.953 237.041 368.986 238.776 369.297 233.972 384.756 232.126 384.756"></polyline>
            <g id="Group-51" transform="translate(237.000000, 369.000000)">
                <g id="Fill-48-Clipped">
                    <mask id="mask-16" fill="white">
                        <use xlink:href="#path-15"></use>
                    </mask>
                    <g id="path-7"></g>
                    <path d="M7.719,2.944 L5.139,9.639 L10.099,9.639 L7.719,2.944 Z M12.212,15.756 L10.633,11.196 L4.561,11.196 L2.871,15.756 L0.936,15.756 L7.319,0.186 L8.743,0.186 L14.57,15.756 L12.212,15.756 L12.212,15.756 Z" id="Fill-48" fill="#FFFFFF" fill-rule="nonzero" mask="url(#mask-16)"></path>
                </g>
                <g id="Fill-50-Clipped">
                    <mask id="mask-18" fill="white">
                        <use xlink:href="#path-17"></use>
                    </mask>
                    <g id="path-7"></g>
                    <path d="M20.325,7.726 C21.637,7.726 22.415,7.46 23.016,6.814 C23.55,6.214 23.861,5.369 23.861,4.413 C23.861,3.411 23.505,2.633 22.905,2.188 C22.438,1.855 21.882,1.744 20.747,1.744 L19.346,1.744 L19.346,7.726 L20.325,7.726 Z M25.218,16.022 L21.615,9.305 L19.346,9.305 L19.346,15.756 L17.189,15.756 L17.189,0.186 L20.814,0.186 C22.949,0.186 23.816,0.386 24.662,1.032 C25.64,1.788 26.152,2.855 26.152,4.235 C26.152,6.125 25.285,7.637 23.55,8.727 L27.42,15.378 L25.218,16.022 L25.218,16.022 Z" id="Fill-50" fill="#FFFFFF" fill-rule="nonzero" mask="url(#mask-18)"></path>
                </g>
            </g>
            <polyline id="Fill-52" fill="#FFFFFF" fill-rule="nonzero" points="279.806 384.756 276.114 372.345 272.332 384.756 270.42 384.756 265.86 369.431 267.907 368.986 271.577 381.953 275.402 369.186 277.092 369.186 280.873 381.953 284.721 368.986 286.456 369.297 281.652 384.756 279.806 384.756"></polyline>
            <g id="Group-57" transform="translate(289.000000, 368.000000)">
                <g id="Fill-53-Clipped">
                    <mask id="mask-20" fill="white">
                        <use xlink:href="#path-19"></use>
                    </mask>
                    <g id="path-9"></g>
                    <polygon id="Fill-53" fill="#FFFFFF" fill-rule="nonzero" mask="url(#mask-20)" points="0.883 16.756 3.041 16.756 3.041 1.186 0.883 1.186"></polygon>
                </g>
                <g id="Fill-55-Clipped">
                    <mask id="mask-22" fill="white">
                        <use xlink:href="#path-21"></use>
                    </mask>
                    <g id="path-9"></g>
                    <path d="M19.764,15.599 C18.274,16.578 16.628,17.022 14.715,17.022 C9.955,17.022 6.53,13.731 6.53,9.104 C6.53,4.433 10.178,0.919 15.049,0.919 C16.828,0.919 18.318,1.386 19.964,2.476 L19.075,3.833 C17.606,2.832 16.495,2.476 14.96,2.476 C11.357,2.476 8.91,5.057 8.91,8.882 C8.91,12.708 11.513,15.465 15.115,15.465 C16.517,15.465 17.784,15.087 18.941,14.331 L19.764,15.599" id="Fill-55" fill="#FFFFFF" fill-rule="nonzero" mask="url(#mask-22)"></path>
                </g>
                <g id="Fill-56-Clipped">
                    <mask id="mask-24" fill="white">
                        <use xlink:href="#path-23"></use>
                    </mask>
                    <g id="path-9"></g>
                    <polyline id="Fill-56" fill="#FFFFFF" fill-rule="nonzero" mask="url(#mask-24)" points="32.436 17 25.541 8.66 25.541 16.756 23.384 16.756 23.384 1.186 25.541 1.186 25.541 8.17 32.28 0.986 33.771 1.942 27.721 8.259 34.593 16.177 32.436 17"></polyline>
                </g>
            </g>
        </g>
    </g>
</svg>