<?xml version="1.0" encoding="UTF-8"?>
<svg width="17px" height="13px" viewBox="0 0 17 13" version="1.1" xmlns="http://www.w3.org/2000/svg" xmlns:xlink="http://www.w3.org/1999/xlink">
    <!-- Generator: Sketch 55.2 (78181) - https://sketchapp.com -->
    <title>youtube</title>
    <desc>Created with Sketch.</desc>
    <g id="Mobile" stroke="none" stroke-width="1" fill="none" fill-rule="evenodd">
        <g id="youtube" fill="#6E7C7C" fill-rule="nonzero">
            <path d="M16.824123,2.80681438 C16.824123,2.80681438 17,4.31364214 17,5.82043644 L17,7.20908361 C17,8.68635786 16.824123,10.1931856 16.824123,10.1931856 C16.824123,10.1931856 16.6482793,11.4636522 16.15,12.0250017 C15.5051621,12.7340853 14.7724023,12.7636388 14.45,12.7931923 C12.075877,13 8.5,13 8.5,13 C8.5,13 4.07412305,12.9704465 2.72587695,12.8227793 C2.34483789,12.7341187 1.49483789,12.7636723 0.85,12.0250351 C0.351753906,11.4636857 0.175876953,10.1932191 0.175876953,10.1932191 C0.175876953,10.1932191 0,8.71594484 0,7.20911708 L0,5.82046991 C0,4.31364214 0.175876953,2.80681438 0.175876953,2.80681438 C0.175876953,2.80681438 0.322402344,1.53638128 0.85,0.974998327 C1.49483789,0.26591472 2.22759766,0.236361202 2.55,0.206807685 C4.92412305,0.0295535176 8.5,0 8.5,0 C8.5,0 12.075877,0.0295535176 14.45,0.206807685 C14.7724023,0.236361202 15.5051621,0.236361202 16.15,0.974998327 C16.6482461,1.53634781 16.824123,2.80681438 16.824123,2.80681438 Z M6.61111111,3.25 L6.61111111,9.75 L12.2777778,6.57490512 L6.61111111,3.25 Z" id="Combined-Shape"></path>
        </g>
    </g>
</svg>